<svg id="Layer_1" data-name="Layer 1" xmlns="http://www.w3.org/2000/svg" viewBox="0 0 133.75 113.5"><defs><style>.cls-1{fill:#649dc5;}</style></defs><title>Artboard 1</title><rect class="cls-1" x="61.01" y="78.07" height="22.21" transform="translate(-46.04 103.87) rotate(-63.43)"/><path class="cls-1" d="M116.42,41.67c0-.28,0-.55,0-.83C116.44,18.74,99.79.75,79.32.75,65.75.75,53.51,8.62,47,21.17a19.22,19.22,0,0,0-9.17-2.32c-11.31,0-20.5,9.86-20.5,22a23.19,23.19,0,0,0,1.24,7.49C7.84,53.06.69,64.26.69,77c0,17.11,12.92,31,28.81,31H54c0-.15,0-.31,0-.46v-7.33H29.5c-11.59,0-21-10.43-21-23.25,0-10.88,6.72-20.2,16.34-22.66l5-1.29L27.2,48.6a15.14,15.14,0,0,1-2.11-7.76c0-7.83,5.7-14.2,12.71-14.2a11.41,11.41,0,0,1,8.06,3.29L50.12,34l2.09-5.54c4.58-12.13,15.22-20,27.11-20,16.17,0,29.32,14.49,29.32,32.3,0,.9-.06,1.87-.12,2.78l-.17,2.56,2.29,1.17c8.88,4.52,14.61,14.39,14.61,25.16,0,15.31-11.29,27.77-25.17,27.77h-16v7.33c0,.16,0,.31,0,.46h16c18.17,0,33-16,33-35.56C133,59.76,126.6,47.93,116.42,41.67Z"/><path class="cls-1" d="M101.41,81.61a6.15,6.15,0,0,0-1.21-2L72.88,52.31a5.18,5.18,0,0,0-1.27-.9,5.47,5.47,0,0,0-2.55-.65h0a5.56,5.56,0,0,0-1.06.1,5.1,5.1,0,0,0-2.72,1.45L38,79.63a5.47,5.47,0,0,0-1.49,2.76,5.27,5.27,0,0,0-.11,1.06,5.21,5.21,0,0,0,.42,2A5.5,5.5,0,0,0,38,87.22l3.15,3.15a5.16,5.16,0,0,0,1.72,1.17,5.31,5.31,0,0,0,1.88.4l.18,0h0A5.26,5.26,0,0,0,46,91.85a5.34,5.34,0,0,0,1-.31,5.16,5.16,0,0,0,1.72-1.17l4.12-4.1L61,78.07h0v22.21h0v7.33c0,.16,0,.31,0,.46a4.6,4.6,0,0,0,.92,2.42,5.52,5.52,0,0,0,4.42,2h5.37a6.16,6.16,0,0,0,2-.34,5.36,5.36,0,0,0,1.54-.85,4.68,4.68,0,0,0,1.11-1.24,4.62,4.62,0,0,0,.64-1.92s0-.06,0-.09,0-.3,0-.46V78.07L89.42,90.33l0,0a5.06,5.06,0,0,0,1,.79,4.49,4.49,0,0,0,.7.38,4.48,4.48,0,0,1-.7-.38,4.89,4.89,0,0,0,2.76.8,5.35,5.35,0,0,0,2.07-.42,5.47,5.47,0,0,0,1.75-1.17l3.15-3.15c.11-.11.19-.24.29-.36a5.62,5.62,0,0,0,.85-1.37,5.3,5.3,0,0,0,.41-2A5.4,5.4,0,0,0,101.41,81.61Z"/></svg>